<svg width="30" height="30" viewBox="0 0 30 30" fill="none" xmlns="http://www.w3.org/2000/svg">
<circle cx="15" cy="15" r="15" fill="white"/>
<mask id="mask0_251_15898" style="mask-type:luminance" maskUnits="userSpaceOnUse" x="2" y="2" width="26" height="26">
<path fill-rule="evenodd" clip-rule="evenodd" d="M15.1281 27.9489C22.2087 27.9489 27.9486 22.2089 27.9486 15.1284C27.9486 8.0478 22.2087 2.30786 15.1281 2.30786C8.04756 2.30786 2.30762 8.0478 2.30762 15.1284C2.30762 22.2089 8.04756 27.9489 15.1281 27.9489Z" fill="white"/>
</mask>
<g mask="url(#mask0_251_15898)">
<path fill-rule="evenodd" clip-rule="evenodd" d="M2.30762 27.9489H27.9486V2.30786H2.30762V27.9489Z" fill="#3B3A39"/>
<path fill-rule="evenodd" clip-rule="evenodd" d="M13.3877 21.9097C16.0049 21.2643 17.916 19.834 19.3587 17.6873C19.8506 18.1391 20.3072 18.5586 20.7569 18.9715C19.6033 20.9352 16.5597 22.6636 13.3877 21.9097ZM20.7569 10.8845C20.3072 11.2975 19.8506 11.7169 19.3587 12.1687C17.916 10.022 16.0049 8.59168 13.3877 7.94624C16.5597 7.19236 19.6033 8.92087 20.7569 10.8845ZM9.1778 19.221C8.60152 18.4684 8.19832 17.6227 7.96321 16.7387C7.83251 16.1559 7.76134 15.5505 7.76134 14.928C7.76134 14.3055 7.83251 13.7001 7.96321 13.1173C8.19832 12.2335 8.60152 11.3877 9.1778 10.6351C10.5904 8.79006 12.8715 8.40638 15.106 9.69783C14.9241 9.71465 14.8348 9.72285 14.7455 9.73119C14.0651 9.79444 13.4169 10.0142 12.8402 10.3505C11.3485 11.163 10.3175 12.9003 10.3175 14.9127C10.3175 15.836 10.5356 16.7008 10.9147 17.4457C10.923 17.4629 10.932 17.48 10.9406 17.4971C10.9483 17.5121 10.9559 17.5273 10.9637 17.5422C11.6845 18.9352 13.1235 19.9741 14.7455 20.1249C14.8348 20.1333 14.9241 20.1413 15.106 20.1581C12.8715 21.4496 10.5904 21.0659 9.1778 19.221ZM21.6782 18.4242C21.006 17.8194 20.3494 17.1971 19.6796 16.5896C19.261 16.2101 18.9704 16.2596 18.6944 16.7583C18.1943 17.6619 17.5957 18.4555 16.591 18.8527C14.6998 19.6003 12.5798 18.7085 11.782 16.8702C11.5599 16.2681 11.4362 15.6071 11.4362 14.9127C11.4362 14.2994 11.5329 13.7122 11.7083 13.1685C12.4415 11.2073 14.638 10.2314 16.591 11.0033C17.5957 11.4005 18.1943 12.1941 18.6944 13.0979C18.9704 13.5965 19.261 13.6459 19.6796 13.2663C20.3494 12.659 21.006 12.0368 21.6782 11.4318C21.9982 11.1439 22.0107 10.8589 21.7879 10.5005C20.434 8.3238 17.9625 6.90738 15.4141 6.73389C15.4156 6.73375 15.417 6.73347 15.4185 6.73347C15.3807 6.73111 15.3425 6.72958 15.3047 6.72763C15.2564 6.72499 15.2082 6.72193 15.16 6.72013C15.0721 6.71693 14.9839 6.71484 14.8953 6.71484C14.8943 6.71484 14.8935 6.71498 14.8927 6.71498C14.7729 6.71484 14.6533 6.7186 14.5335 6.72416C14.4796 6.72638 14.426 6.73 14.3723 6.73333C14.3297 6.73625 14.287 6.73959 14.2444 6.74306C10.9442 7.00427 8.19597 9.23032 7.15944 12.2578C7.14144 12.3094 7.124 12.3611 7.10711 12.4131C7.09381 12.4542 7.08066 12.4954 7.06806 12.5368C6.99827 12.7639 6.93694 12.9941 6.88681 13.2277H6.89138C6.77632 13.7765 6.71484 14.345 6.71484 14.928C6.71484 15.5112 6.77632 16.0796 6.89138 16.6283H6.88681C6.93694 16.8618 6.99827 17.092 7.06806 17.3192C7.08066 17.3606 7.09381 17.4018 7.10711 17.443C7.124 17.4949 7.14144 17.5466 7.15944 17.598C8.19583 20.6255 10.9439 22.8516 14.2442 23.1129C14.2869 23.1165 14.3298 23.1197 14.3727 23.1226C14.4262 23.1261 14.4796 23.1296 14.5332 23.132C14.6531 23.1375 14.7729 23.1411 14.8928 23.141C14.8936 23.141 14.8945 23.1411 14.8953 23.1411C14.9838 23.1411 15.072 23.1392 15.1598 23.1358C15.2084 23.1342 15.2571 23.1311 15.3058 23.1285C15.3434 23.1264 15.381 23.125 15.4185 23.1226C15.417 23.1225 15.4156 23.1224 15.4141 23.1222C17.9626 22.9487 20.434 21.5322 21.7879 19.3555C22.0107 18.9971 21.9982 18.7123 21.6782 18.4242Z" fill="#EFF2F4"/>
</g>
</svg>
