<?xml version="1.0" encoding="UTF-8" standalone="no"?><svg xmlns="http://www.w3.org/2000/svg" xmlns:xlink="http://www.w3.org/1999/xlink" contentScriptType="application/ecmascript" contentStyleType="text/css" height="812px" preserveAspectRatio="none" style="width:393px;height:812px;background:#FEFEFE;" version="1.1" viewBox="0 0 393 812" width="393px" zoomAndPan="magnify"><defs><filter height="300%" id="fvw3lrzz7mzwa" width="300%" x="-1" y="-1"><feGaussianBlur result="blurOut" stdDeviation="2.0"/><feColorMatrix in="blurOut" result="blurOut2" type="matrix" values="0 0 0 0 0 0 0 0 0 0 0 0 0 0 0 0 0 0 .4 0"/><feOffset dx="4.0" dy="4.0" in="blurOut2" result="blurOut3"/><feBlend in="SourceGraphic" in2="blurOut3" mode="normal"/></filter></defs><g><ellipse cx="234.25" cy="20" fill="#000000" filter="url(#fvw3lrzz7mzwa)" rx="10" ry="10" style="stroke: none; stroke-width: 1.0;"/><rect fill="#FEFECE" filter="url(#fvw3lrzz7mzwa)" height="33.9688" rx="12.5" ry="12.5" style="stroke: #A80036; stroke-width: 1.5;" width="123" x="172.75" y="50"/><text fill="#000000" font-family="sans-serif" font-size="12" lengthAdjust="spacingAndGlyphs" textLength="103" x="182.75" y="71.1387">read metamodel</text><rect fill="#FEFECE" filter="url(#fvw3lrzz7mzwa)" height="33.9688" rx="12.5" ry="12.5" style="stroke: #A80036; stroke-width: 1.5;" width="104" x="182.25" y="152.3711"/><text fill="#000000" font-family="sans-serif" font-size="12" lengthAdjust="spacingAndGlyphs" textLength="84" x="192.25" y="173.5098">read override</text><rect fill="#FEFECE" filter="url(#fvw3lrzz7mzwa)" height="33.9688" rx="12.5" ry="12.5" style="stroke: #A80036; stroke-width: 1.5;" width="195" x="136.75" y="221.3398"/><text fill="#000000" font-family="sans-serif" font-size="12" lengthAdjust="spacingAndGlyphs" textLength="175" x="146.75" y="242.4785">merge metamodel+override</text><polygon fill="#FEFECE" filter="url(#fvw3lrzz7mzwa)" points="195.25,103.9688,273.25,103.9688,285.25,115.9688,273.25,127.9688,195.25,127.9688,183.25,115.9688,195.25,103.9688" style="stroke: #A80036; stroke-width: 1.5;"/><text fill="#000000" font-family="sans-serif" font-size="11" lengthAdjust="spacingAndGlyphs" textLength="20" x="238.25" y="138.1792">yes</text><text fill="#000000" font-family="sans-serif" font-size="11" lengthAdjust="spacingAndGlyphs" textLength="78" x="195.25" y="119.7769">has override?</text><polygon fill="#FEFECE" filter="url(#fvw3lrzz7mzwa)" points="234.25,275.3086,246.25,287.3086,234.25,299.3086,222.25,287.3086,234.25,275.3086" style="stroke: #A80036; stroke-width: 1.5;"/><polygon fill="#FEFECE" filter="url(#fvw3lrzz7mzwa)" points="177.25,319.3086,291.25,319.3086,303.25,331.3086,291.25,343.3086,177.25,343.3086,165.25,331.3086,177.25,319.3086" style="stroke: #A80036; stroke-width: 1.5;"/><text fill="#000000" font-family="sans-serif" font-size="11" lengthAdjust="spacingAndGlyphs" textLength="114" x="177.25" y="335.1167">metamodel is valid?</text><text fill="#000000" font-family="sans-serif" font-size="11" lengthAdjust="spacingAndGlyphs" textLength="20" x="145.25" y="328.7144">yes</text><rect fill="#FEFECE" filter="url(#fvw3lrzz7mzwa)" height="33.9688" rx="12.5" ry="12.5" style="stroke: #A80036; stroke-width: 1.5;" width="128" x="69" y="401.7109"/><text fill="#000000" font-family="sans-serif" font-size="12" lengthAdjust="spacingAndGlyphs" textLength="108" x="79" y="422.8496">stage extensions</text><polygon fill="#FEFECE" filter="url(#fvw3lrzz7mzwa)" points="32,353.3086,234,353.3086,246,365.3086,234,377.3086,32,377.3086,20,365.3086,32,353.3086" style="stroke: #A80036; stroke-width: 1.5;"/><text fill="#000000" font-family="sans-serif" font-size="11" lengthAdjust="spacingAndGlyphs" textLength="20" x="137" y="387.519">yes</text><text fill="#000000" font-family="sans-serif" font-size="11" lengthAdjust="spacingAndGlyphs" textLength="202" x="32" y="369.1167">metamodel references extensions?</text><polygon fill="#FEFECE" filter="url(#fvw3lrzz7mzwa)" points="133,455.6797,145,467.6797,133,479.6797,121,467.6797,133,455.6797" style="stroke: #A80036; stroke-width: 1.5;"/><rect fill="#FEFECE" filter="url(#fvw3lrzz7mzwa)" height="33.9688" rx="12.5" ry="12.5" style="stroke: #A80036; stroke-width: 1.5;" width="223" x="21.5" y="543.6797"/><text fill="#000000" font-family="sans-serif" font-size="12" lengthAdjust="spacingAndGlyphs" textLength="203" x="31.5" y="564.8184">read target from the metamodel</text><rect fill="#FEFECE" filter="url(#fvw3lrzz7mzwa)" height="33.9688" rx="12.5" ry="12.5" style="stroke: #A80036; stroke-width: 1.5;" width="220" x="23" y="597.6484"/><text fill="#000000" font-family="sans-serif" font-size="12" lengthAdjust="spacingAndGlyphs" textLength="200" x="33" y="618.7871">run extension to process target</text><rect fill="#FEFECE" filter="url(#fvw3lrzz7mzwa)" height="33.9688" rx="12.5" ry="12.5" style="stroke: #A80036; stroke-width: 1.5;" width="106" x="80" y="651.6172"/><text fill="#000000" font-family="sans-serif" font-size="12" lengthAdjust="spacingAndGlyphs" textLength="86" x="90" y="672.7559">write artifacts</text><polygon fill="#FEFECE" filter="url(#fvw3lrzz7mzwa)" points="133,499.6797,145,511.6797,133,523.6797,121,511.6797,133,499.6797" style="stroke: #A80036; stroke-width: 1.5;"/><polygon fill="#FEFECE" filter="url(#fvw3lrzz7mzwa)" points="92.5,705.5859,173.5,705.5859,185.5,717.5859,173.5,729.5859,92.5,729.5859,80.5,717.5859,92.5,705.5859" style="stroke: #A80036; stroke-width: 1.5;"/><text fill="#000000" font-family="sans-serif" font-size="11" lengthAdjust="spacingAndGlyphs" textLength="81" x="92.5" y="721.394">more targets?</text><text fill="#000000" font-family="sans-serif" font-size="11" lengthAdjust="spacingAndGlyphs" textLength="20" x="185.5" y="714.9917">yes</text><rect fill="#FEFECE" filter="url(#fvw3lrzz7mzwa)" height="33.9688" rx="12.5" ry="12.5" style="stroke: #A80036; stroke-width: 1.5;" width="94" x="288.5" y="353.3086"/><text fill="#000000" font-family="sans-serif" font-size="12" lengthAdjust="spacingAndGlyphs" textLength="74" x="298.5" y="374.4473">report error</text><polygon fill="#FEFECE" filter="url(#fvw3lrzz7mzwa)" points="234.25,735.5859,246.25,747.5859,234.25,759.5859,222.25,747.5859,234.25,735.5859" style="stroke: #A80036; stroke-width: 1.5;"/><ellipse cx="234.25" cy="790.5859" fill="#FFFFFF" filter="url(#fvw3lrzz7mzwa)" rx="11" ry="11" style="stroke: #000000; stroke-width: 1.0;"/><ellipse cx="234.25" cy="790.5859" fill="#000000" rx="6" ry="6" style="stroke: #7F7F7F; stroke-width: 1.0;"/><line style="stroke: #A80036; stroke-width: 1.5;" x1="234.25" x2="234.25" y1="30" y2="50"/><polygon fill="#A80036" points="230.25,40,234.25,50,238.25,40,234.25,44" style="stroke: #A80036; stroke-width: 1.0;"/><line style="stroke: #A80036; stroke-width: 1.5;" x1="234.25" x2="234.25" y1="186.3398" y2="221.3398"/><polygon fill="#A80036" points="230.25,211.3398,234.25,221.3398,238.25,211.3398,234.25,215.3398" style="stroke: #A80036; stroke-width: 1.0;"/><line style="stroke: #A80036; stroke-width: 1.5;" x1="234.25" x2="234.25" y1="127.9688" y2="152.3711"/><polygon fill="#A80036" points="230.25,142.3711,234.25,152.3711,238.25,142.3711,234.25,146.3711" style="stroke: #A80036; stroke-width: 1.0;"/><line style="stroke: #A80036; stroke-width: 1.5;" x1="285.25" x2="341.75" y1="115.9688" y2="115.9688"/><polygon fill="#A80036" points="337.75,193.8398,341.75,203.8398,345.75,193.8398,341.75,197.8398" style="stroke: #A80036; stroke-width: 1.5;"/><line style="stroke: #A80036; stroke-width: 1.5;" x1="341.75" x2="341.75" y1="115.9688" y2="287.3086"/><line style="stroke: #A80036; stroke-width: 1.5;" x1="341.75" x2="246.25" y1="287.3086" y2="287.3086"/><polygon fill="#A80036" points="256.25,283.3086,246.25,287.3086,256.25,291.3086,252.25,287.3086" style="stroke: #A80036; stroke-width: 1.0;"/><line style="stroke: #A80036; stroke-width: 1.5;" x1="234.25" x2="234.25" y1="255.3086" y2="275.3086"/><polygon fill="#A80036" points="230.25,265.3086,234.25,275.3086,238.25,265.3086,234.25,269.3086" style="stroke: #A80036; stroke-width: 1.0;"/><line style="stroke: #A80036; stroke-width: 1.5;" x1="234.25" x2="234.25" y1="83.9688" y2="103.9688"/><polygon fill="#A80036" points="230.25,93.9688,234.25,103.9688,238.25,93.9688,234.25,97.9688" style="stroke: #A80036; stroke-width: 1.0;"/><line style="stroke: #A80036; stroke-width: 1.5;" x1="133" x2="133" y1="377.3086" y2="401.7109"/><polygon fill="#A80036" points="129,391.7109,133,401.7109,137,391.7109,133,395.7109" style="stroke: #A80036; stroke-width: 1.0;"/><line style="stroke: #A80036; stroke-width: 1.5;" x1="246" x2="258" y1="365.3086" y2="365.3086"/><polygon fill="#A80036" points="254,408.6953,258,418.6953,262,408.6953,258,412.6953" style="stroke: #A80036; stroke-width: 1.5;"/><line style="stroke: #A80036; stroke-width: 1.5;" x1="258" x2="258" y1="365.3086" y2="467.6797"/><line style="stroke: #A80036; stroke-width: 1.5;" x1="258" x2="145" y1="467.6797" y2="467.6797"/><polygon fill="#A80036" points="155,463.6797,145,467.6797,155,471.6797,151,467.6797" style="stroke: #A80036; stroke-width: 1.0;"/><line style="stroke: #A80036; stroke-width: 1.5;" x1="133" x2="133" y1="435.6797" y2="455.6797"/><polygon fill="#A80036" points="129,445.6797,133,455.6797,137,445.6797,133,449.6797" style="stroke: #A80036; stroke-width: 1.0;"/><line style="stroke: #A80036; stroke-width: 1.5;" x1="133" x2="133" y1="577.6484" y2="597.6484"/><polygon fill="#A80036" points="129,587.6484,133,597.6484,137,587.6484,133,591.6484" style="stroke: #A80036; stroke-width: 1.0;"/><line style="stroke: #A80036; stroke-width: 1.5;" x1="133" x2="133" y1="631.6172" y2="651.6172"/><polygon fill="#A80036" points="129,641.6172,133,651.6172,137,641.6172,133,645.6172" style="stroke: #A80036; stroke-width: 1.0;"/><line style="stroke: #A80036; stroke-width: 1.5;" x1="133" x2="133" y1="523.6797" y2="543.6797"/><polygon fill="#A80036" points="129,533.6797,133,543.6797,137,533.6797,133,537.6797" style="stroke: #A80036; stroke-width: 1.0;"/><line style="stroke: #A80036; stroke-width: 1.5;" x1="185.5" x2="256.5" y1="717.5859" y2="717.5859"/><polygon fill="#A80036" points="252.5,624.6328,256.5,614.6328,260.5,624.6328,256.5,620.6328" style="stroke: #A80036; stroke-width: 1.5;"/><line style="stroke: #A80036; stroke-width: 1.5;" x1="256.5" x2="256.5" y1="511.6797" y2="717.5859"/><line style="stroke: #A80036; stroke-width: 1.5;" x1="256.5" x2="145" y1="511.6797" y2="511.6797"/><polygon fill="#A80036" points="155,507.6797,145,511.6797,155,515.6797,151,511.6797" style="stroke: #A80036; stroke-width: 1.0;"/><line style="stroke: #A80036; stroke-width: 1.5;" x1="133" x2="133" y1="685.5859" y2="705.5859"/><polygon fill="#A80036" points="129,695.5859,133,705.5859,137,695.5859,133,699.5859" style="stroke: #A80036; stroke-width: 1.0;"/><line style="stroke: #A80036; stroke-width: 1.5;" x1="133" x2="133" y1="479.6797" y2="499.6797"/><polygon fill="#A80036" points="129,489.6797,133,499.6797,137,489.6797,133,493.6797" style="stroke: #A80036; stroke-width: 1.0;"/><line style="stroke: #A80036; stroke-width: 1.5;" x1="165.25" x2="133" y1="331.3086" y2="331.3086"/><line style="stroke: #A80036; stroke-width: 1.5;" x1="133" x2="133" y1="331.3086" y2="353.3086"/><polygon fill="#A80036" points="129,343.3086,133,353.3086,137,343.3086,133,347.3086" style="stroke: #A80036; stroke-width: 1.0;"/><line style="stroke: #A80036; stroke-width: 1.5;" x1="303.25" x2="335.5" y1="331.3086" y2="331.3086"/><line style="stroke: #A80036; stroke-width: 1.5;" x1="335.5" x2="335.5" y1="331.3086" y2="353.3086"/><polygon fill="#A80036" points="331.5,343.3086,335.5,353.3086,339.5,343.3086,335.5,347.3086" style="stroke: #A80036; stroke-width: 1.0;"/><line style="stroke: #A80036; stroke-width: 1.5;" x1="133" x2="133" y1="729.5859" y2="747.5859"/><line style="stroke: #A80036; stroke-width: 1.5;" x1="133" x2="222.25" y1="747.5859" y2="747.5859"/><polygon fill="#A80036" points="212.25,743.5859,222.25,747.5859,212.25,751.5859,216.25,747.5859" style="stroke: #A80036; stroke-width: 1.0;"/><line style="stroke: #A80036; stroke-width: 1.5;" x1="335.5" x2="335.5" y1="387.2773" y2="747.5859"/><line style="stroke: #A80036; stroke-width: 1.5;" x1="335.5" x2="246.25" y1="747.5859" y2="747.5859"/><polygon fill="#A80036" points="256.25,743.5859,246.25,747.5859,256.25,751.5859,252.25,747.5859" style="stroke: #A80036; stroke-width: 1.0;"/><line style="stroke: #A80036; stroke-width: 1.5;" x1="234.25" x2="234.25" y1="299.3086" y2="319.3086"/><polygon fill="#A80036" points="230.25,309.3086,234.25,319.3086,238.25,309.3086,234.25,313.3086" style="stroke: #A80036; stroke-width: 1.0;"/><line style="stroke: #A80036; stroke-width: 1.5;" x1="234.25" x2="234.25" y1="759.5859" y2="779.5859"/><polygon fill="#A80036" points="230.25,769.5859,234.25,779.5859,238.25,769.5859,234.25,773.5859" style="stroke: #A80036; stroke-width: 1.0;"/><!--MD5=[9247aca88521a3c045432f518fd959c5]
@startuml
skinparamlocked backgroundColor fefefe

start

:read metamodel;
if (has override?) then (yes)
  :read override;
  :merge metamodel+override;
endif

if (metamodel is valid?) then (yes)
  if (metamodel references extensions?) then (yes)
    :stage extensions;
  endif
  repeat
    :read target from the metamodel;
    :run extension to process target;
    :write artifacts;
  repeat while (more targets?) is (yes)
else
  :report error;
endif

stop

@enduml

PlantUML version 1.2020.02(Sun Mar 01 10:22:07 UTC 2020)
(GPL source distribution)
Java Runtime: OpenJDK Runtime Environment
JVM: OpenJDK 64-Bit Server VM
Java Version: 11.0.22+7
Operating System: Linux
Default Encoding: UTF-8
Language: en
Country: null
--></g></svg>