<?xml version="1.0" encoding="UTF-8" standalone="no"?><svg xmlns="http://www.w3.org/2000/svg" xmlns:xlink="http://www.w3.org/1999/xlink" contentScriptType="application/ecmascript" contentStyleType="text/css" height="128px" preserveAspectRatio="none" style="width:418px;height:128px;background:#FEFEFE;" version="1.1" viewBox="0 0 418 128" width="418px" zoomAndPan="magnify"><defs><filter height="300%" id="f1rfxhtx5e6dnt" width="300%" x="-1" y="-1"><feGaussianBlur result="blurOut" stdDeviation="2.0"/><feColorMatrix in="blurOut" result="blurOut2" type="matrix" values="0 0 0 0 0 0 0 0 0 0 0 0 0 0 0 0 0 0 .4 0"/><feOffset dx="4.0" dy="4.0" in="blurOut2" result="blurOut3"/><feBlend in="SourceGraphic" in2="blurOut3" mode="normal"/></filter></defs><g><!--MD5=[b5faf0bc5595a0eb60a8db1b2feec10f]
cluster Toolchain App--><polygon fill="#FEFEFE" filter="url(#f1rfxhtx5e6dnt)" points="208,34,218,24,396,24,396,106,386,116,208,116,208,34" style="stroke: #000000; stroke-width: 1.5;"/><line style="stroke: #000000; stroke-width: 1.5;" x1="386" x2="395" y1="34" y2="25"/><line style="stroke: #000000; stroke-width: 1.5;" x1="208" x2="386" y1="34" y2="34"/><line style="stroke: #000000; stroke-width: 1.5;" x1="386" x2="386" y1="34" y2="116"/><text fill="#000000" font-family="sans-serif" font-size="14" font-weight="bold" lengthAdjust="spacingAndGlyphs" textLength="112" x="242" y="49.9951">Toolchain App</text><!--MD5=[36a841e18707cee00a362cb6d7051365]
cluster Extensions--><polygon fill="#FEFEFE" filter="url(#f1rfxhtx5e6dnt)" points="22,34,32,24,184,24,184,106,174,116,22,116,22,34" style="stroke: #000000; stroke-width: 1.5;"/><line style="stroke: #000000; stroke-width: 1.5;" x1="174" x2="183" y1="34" y2="25"/><line style="stroke: #000000; stroke-width: 1.5;" x1="22" x2="174" y1="34" y2="34"/><line style="stroke: #000000; stroke-width: 1.5;" x1="174" x2="174" y1="34" y2="116"/><text fill="#000000" font-family="sans-serif" font-size="14" font-weight="bold" lengthAdjust="spacingAndGlyphs" textLength="86" x="56" y="49.9951">Extensions</text><!--MD5=[0d482ad21d5c7c11aa976e45da5ecfe6]
entity core--><rect fill="#FEFECE" filter="url(#f1rfxhtx5e6dnt)" height="36.2969" style="stroke: #A80036; stroke-width: 1.5;" width="51" x="224.5" y="64"/><rect fill="#FEFECE" height="5" style="stroke: #A80036; stroke-width: 1.5;" width="10" x="219.5" y="69"/><rect fill="#FEFECE" height="5" style="stroke: #A80036; stroke-width: 1.5;" width="10" x="219.5" y="90.2969"/><text fill="#000000" font-family="sans-serif" font-size="14" lengthAdjust="spacingAndGlyphs" textLength="31" x="234.5" y="86.9951">core</text><!--MD5=[535f43d417660373b2263710d106a2e4]
entity extension--><rect fill="#FEFECE" filter="url(#f1rfxhtx5e6dnt)" height="36.2969" style="stroke: #A80036; stroke-width: 1.5;" width="88" x="80" y="64"/><rect fill="#FEFECE" height="5" style="stroke: #A80036; stroke-width: 1.5;" width="10" x="75" y="69"/><rect fill="#FEFECE" height="5" style="stroke: #A80036; stroke-width: 1.5;" width="10" x="75" y="90.2969"/><text fill="#000000" font-family="sans-serif" font-size="14" lengthAdjust="spacingAndGlyphs" textLength="68" x="90" y="86.9951">extension</text><!--MD5=[10df2c865e5b36c3740334abf9c4ed5e]
link extension to core--><path d="M173.56,82 C188.81,82 204.05,82 219.3,82 " fill="none" id="extension-core" style="stroke: #A80036; stroke-width: 1.0;"/><polygon fill="#A80036" points="224.47,82,215.47,78,219.47,82,215.47,86,224.47,82" style="stroke: #A80036; stroke-width: 1.0;"/><polygon fill="#A80036" points="168.3,82,177.3,86,173.3,82,177.3,78,168.3,82" style="stroke: #A80036; stroke-width: 1.0;"/><!--MD5=[0bc372e2715bd21fcf803d271ab6a9ea]
@startuml
skinparamlocked backgroundColor fefefe

node "Toolchain App" {
    [core]
}

node "Extensions" {
    [extension]
}

extension <-> core

@enduml

PlantUML version 1.2020.02(Sun Mar 01 10:22:07 UTC 2020)
(GPL source distribution)
Java Runtime: OpenJDK Runtime Environment
JVM: OpenJDK 64-Bit Server VM
Java Version: 11.0.22+7
Operating System: Linux
Default Encoding: UTF-8
Language: en
Country: null
--></g></svg>