<?xml version="1.0" encoding="UTF-8" standalone="no"?><svg xmlns="http://www.w3.org/2000/svg" xmlns:xlink="http://www.w3.org/1999/xlink" contentScriptType="application/ecmascript" contentStyleType="text/css" height="990px" preserveAspectRatio="none" style="width:708px;height:990px;background:#FEFEFE;" version="1.1" viewBox="0 0 708 990" width="708px" zoomAndPan="magnify"><defs><filter height="300%" id="f15ogo22ccj8z5" width="300%" x="-1" y="-1"><feGaussianBlur result="blurOut" stdDeviation="2.0"/><feColorMatrix in="blurOut" result="blurOut2" type="matrix" values="0 0 0 0 0 0 0 0 0 0 0 0 0 0 0 0 0 0 .4 0"/><feOffset dx="4.0" dy="4.0" in="blurOut2" result="blurOut3"/><feBlend in="SourceGraphic" in2="blurOut3" mode="normal"/></filter></defs><g><text fill="#000000" font-family="sans-serif" font-size="18" lengthAdjust="spacingAndGlyphs" textLength="259" x="223.5" y="26.708">Yocto Deployment Campaign</text><ellipse cx="353.5" cy="40.9531" fill="#000000" filter="url(#f15ogo22ccj8z5)" rx="10" ry="10" style="stroke: none; stroke-width: 1.0;"/><rect fill="#FEFECE" filter="url(#f15ogo22ccj8z5)" height="33.9688" rx="12.5" ry="12.5" style="stroke: #A80036; stroke-width: 1.5;" width="148" x="279.5" y="70.9531"/><text fill="#000000" font-family="sans-serif" font-size="12" lengthAdjust="spacingAndGlyphs" textLength="128" x="289.5" y="92.0918">Symphony Activation</text><rect fill="#FEFECE" filter="url(#f15ogo22ccj8z5)" height="33.9688" rx="12.5" ry="12.5" style="stroke: #A80036; stroke-width: 1.5;" width="155" x="276" y="124.9219"/><text fill="#000000" font-family="sans-serif" font-size="12" lengthAdjust="spacingAndGlyphs" textLength="135" x="286" y="146.0605">Service Principal Auth</text><rect fill="#FEFECE" filter="url(#f15ogo22ccj8z5)" height="33.9688" rx="12.5" ry="12.5" style="stroke: #A80036; stroke-width: 1.5;" width="123" x="292" y="227.293"/><text fill="#000000" font-family="sans-serif" font-size="12" lengthAdjust="spacingAndGlyphs" textLength="103" x="302" y="248.4316">Deploy Yocto VM</text><rect fill="#FEFECE" filter="url(#f15ogo22ccj8z5)" height="33.9688" rx="12.5" ry="12.5" style="stroke: #A80036; stroke-width: 1.5;" width="137" x="285" y="329.6641"/><text fill="#000000" font-family="sans-serif" font-size="12" lengthAdjust="spacingAndGlyphs" textLength="117" x="295" y="350.8027">Secure Copy to VM</text><rect fill="#FEFECE" filter="url(#f15ogo22ccj8z5)" height="33.9688" rx="12.5" ry="12.5" style="stroke: #A80036; stroke-width: 1.5;" width="177" x="265" y="432.0352"/><text fill="#000000" font-family="sans-serif" font-size="12" lengthAdjust="spacingAndGlyphs" textLength="157" x="275" y="453.1738">Run Install on VM via SSH</text><polygon fill="#FEFECE" filter="url(#f15ogo22ccj8z5)" points="293.5,486.0039,413.5,486.0039,425.5,498.0039,413.5,510.0039,293.5,510.0039,281.5,498.0039,293.5,486.0039" style="stroke: #A80036; stroke-width: 1.5;"/><text fill="#000000" font-family="sans-serif" font-size="11" lengthAdjust="spacingAndGlyphs" textLength="120" x="293.5" y="501.812">Is Install Successful?</text><text fill="#000000" font-family="sans-serif" font-size="11" lengthAdjust="spacingAndGlyphs" textLength="20" x="261.5" y="495.4097">yes</text><text fill="#000000" font-family="sans-serif" font-size="11" lengthAdjust="spacingAndGlyphs" textLength="14" x="425.5" y="495.4097">no</text><ellipse cx="271.5" cy="530.0039" fill="#90EE90" filter="url(#f15ogo22ccj8z5)" rx="10" ry="10" style="stroke: #A80036; stroke-width: 1.5;"/><path d="M270.3594,526.7227 L270.3594,530.0195 L271.8438,530.0195 Q272.6719,530.0195 273.125,529.5977 Q273.5781,529.1602 273.5781,528.3633 Q273.5781,527.582 273.125,527.1602 Q272.6719,526.7227 271.8438,526.7227 L270.3594,526.7227 Z M269.1719,525.7539 L271.8438,525.7539 Q273.3281,525.7539 274.0781,526.4258 Q274.8281,527.082 274.8281,528.3633 Q274.8281,529.6602 274.0781,530.332 Q273.3281,530.9883 271.8438,530.9883 L270.3594,530.9883 L270.3594,534.5039 L269.1719,534.5039 L269.1719,525.7539 Z "/><ellipse cx="435.5" cy="530.0039" fill="#FF6347" filter="url(#f15ogo22ccj8z5)" rx="10" ry="10" style="stroke: #A80036; stroke-width: 1.5;"/><path d="M433.1719,525.7539 L438.2031,525.7539 L438.2031,526.7539 L434.3594,526.7539 L434.3594,529.332 L437.8281,529.332 L437.8281,530.332 L434.3594,530.332 L434.3594,534.5039 L433.1719,534.5039 L433.1719,525.7539 Z "/><polygon fill="#FEFECE" filter="url(#f15ogo22ccj8z5)" points="296.5,383.6328,410.5,383.6328,422.5,395.6328,410.5,407.6328,296.5,407.6328,284.5,395.6328,296.5,383.6328" style="stroke: #A80036; stroke-width: 1.5;"/><text fill="#000000" font-family="sans-serif" font-size="11" lengthAdjust="spacingAndGlyphs" textLength="20" x="357.5" y="417.8433">yes</text><text fill="#000000" font-family="sans-serif" font-size="11" lengthAdjust="spacingAndGlyphs" textLength="114" x="296.5" y="399.4409">Is Copy Successful?</text><text fill="#000000" font-family="sans-serif" font-size="11" lengthAdjust="spacingAndGlyphs" textLength="14" x="422.5" y="393.0386">no</text><ellipse cx="456.5" cy="395.6328" fill="#FF6347" filter="url(#f15ogo22ccj8z5)" rx="10" ry="10" style="stroke: #A80036; stroke-width: 1.5;"/><path d="M454.1719,391.3828 L459.2031,391.3828 L459.2031,392.3828 L455.3594,392.3828 L455.3594,394.9609 L458.8281,394.9609 L458.8281,395.9609 L455.3594,395.9609 L455.3594,400.1328 L454.1719,400.1328 L454.1719,391.3828 Z "/><polygon fill="#FEFECE" filter="url(#f15ogo22ccj8z5)" points="277,281.2617,430,281.2617,442,293.2617,430,305.2617,277,305.2617,265,293.2617,277,281.2617" style="stroke: #A80036; stroke-width: 1.5;"/><text fill="#000000" font-family="sans-serif" font-size="11" lengthAdjust="spacingAndGlyphs" textLength="20" x="357.5" y="315.4722">yes</text><text fill="#000000" font-family="sans-serif" font-size="11" lengthAdjust="spacingAndGlyphs" textLength="153" x="277" y="297.0698">Is Deployment Successful?</text><text fill="#000000" font-family="sans-serif" font-size="11" lengthAdjust="spacingAndGlyphs" textLength="14" x="442" y="290.6675">no</text><ellipse cx="476" cy="293.2617" fill="#FF6347" filter="url(#f15ogo22ccj8z5)" rx="10" ry="10" style="stroke: #A80036; stroke-width: 1.5;"/><path d="M473.6719,289.0117 L478.7031,289.0117 L478.7031,290.0117 L474.8594,290.0117 L474.8594,292.5898 L478.3281,292.5898 L478.3281,293.5898 L474.8594,293.5898 L474.8594,297.7617 L473.6719,297.7617 L473.6719,289.0117 Z "/><polygon fill="#FEFECE" filter="url(#f15ogo22ccj8z5)" points="288,178.8906,419,178.8906,431,190.8906,419,202.8906,288,202.8906,276,190.8906,288,178.8906" style="stroke: #A80036; stroke-width: 1.5;"/><text fill="#000000" font-family="sans-serif" font-size="11" lengthAdjust="spacingAndGlyphs" textLength="20" x="357.5" y="213.1011">yes</text><text fill="#000000" font-family="sans-serif" font-size="11" lengthAdjust="spacingAndGlyphs" textLength="131" x="288" y="194.6987">Is SP login successful?</text><text fill="#000000" font-family="sans-serif" font-size="11" lengthAdjust="spacingAndGlyphs" textLength="14" x="431" y="188.2964">no</text><ellipse cx="465" cy="190.8906" fill="#FF6347" filter="url(#f15ogo22ccj8z5)" rx="10" ry="10" style="stroke: #A80036; stroke-width: 1.5;"/><path d="M462.6719,186.6406 L467.7031,186.6406 L467.7031,187.6406 L463.8594,187.6406 L463.8594,190.2188 L467.3281,190.2188 L467.3281,191.2188 L463.8594,191.2188 L463.8594,195.3906 L462.6719,195.3906 L462.6719,186.6406 Z "/><rect fill="#000000" filter="url(#f15ogo22ccj8z5)" height="6" rx="2.5" ry="2.5" style="stroke: #000000; stroke-width: 1.0;" width="687" x="10" y="550.0039"/><ellipse cx="178" cy="586.0039" fill="#90EE90" filter="url(#f15ogo22ccj8z5)" rx="10" ry="10" style="stroke: #A80036; stroke-width: 1.5;"/><path d="M176.8594,582.7227 L176.8594,586.0195 L178.3438,586.0195 Q179.1719,586.0195 179.625,585.5977 Q180.0781,585.1602 180.0781,584.3633 Q180.0781,583.582 179.625,583.1602 Q179.1719,582.7227 178.3438,582.7227 L176.8594,582.7227 Z M175.6719,581.7539 L178.3438,581.7539 Q179.8281,581.7539 180.5781,582.4258 Q181.3281,583.082 181.3281,584.3633 Q181.3281,585.6602 180.5781,586.332 Q179.8281,586.9883 178.3438,586.9883 L176.8594,586.9883 L176.8594,590.5039 L175.6719,590.5039 L175.6719,581.7539 Z "/><rect fill="#FEFECE" filter="url(#f15ogo22ccj8z5)" height="33.9688" rx="12.5" ry="12.5" style="stroke: #A80036; stroke-width: 1.5;" width="312" x="22" y="616.0039"/><text fill="#000000" font-family="sans-serif" font-size="12" lengthAdjust="spacingAndGlyphs" textLength="292" x="32" y="637.1426">Outputs passed: _previousStage, _status=200</text><ellipse cx="523.5" cy="586.0039" fill="#FF6347" filter="url(#f15ogo22ccj8z5)" rx="10" ry="10" style="stroke: #A80036; stroke-width: 1.5;"/><path d="M521.1719,581.7539 L526.2031,581.7539 L526.2031,582.7539 L522.3594,582.7539 L522.3594,585.332 L525.8281,585.332 L525.8281,586.332 L522.3594,586.332 L522.3594,590.5039 L521.1719,590.5039 L521.1719,581.7539 Z "/><rect fill="#FEFECE" filter="url(#f15ogo22ccj8z5)" height="33.9688" rx="12.5" ry="12.5" style="stroke: #A80036; stroke-width: 1.5;" width="323" x="362" y="616.0039"/><text fill="#000000" font-family="sans-serif" font-size="12" lengthAdjust="spacingAndGlyphs" textLength="303" x="372" y="637.1426">Outputs passed: _previousStage, _status, _error</text><polygon fill="#FEFECE" filter="url(#f15ogo22ccj8z5)" points="353.5,659.9727,365.5,671.9727,353.5,683.9727,341.5,671.9727,353.5,659.9727" style="stroke: #A80036; stroke-width: 1.5;"/><rect fill="#FEFECE" filter="url(#f15ogo22ccj8z5)" height="33.9688" rx="12.5" ry="12.5" style="stroke: #A80036; stroke-width: 1.5;" width="89" x="309" y="703.9727"/><text fill="#000000" font-family="sans-serif" font-size="12" lengthAdjust="spacingAndGlyphs" textLength="69" x="319" y="725.1113">Send Email</text><polygon fill="#FEFECE" filter="url(#f15ogo22ccj8z5)" points="314,757.9414,393,757.9414,405,769.9414,393,781.9414,314,781.9414,302,769.9414,314,757.9414" style="stroke: #A80036; stroke-width: 1.5;"/><text fill="#000000" font-family="sans-serif" font-size="11" lengthAdjust="spacingAndGlyphs" textLength="79" x="314" y="773.7495">Is _status ok?</text><text fill="#000000" font-family="sans-serif" font-size="11" lengthAdjust="spacingAndGlyphs" textLength="20" x="282" y="767.3472">yes</text><text fill="#000000" font-family="sans-serif" font-size="11" lengthAdjust="spacingAndGlyphs" textLength="14" x="405" y="767.3472">no</text><rect fill="#FEFECE" filter="url(#f15ogo22ccj8z5)" height="47.9375" rx="12.5" ry="12.5" style="stroke: #A80036; stroke-width: 1.5;" width="249" x="92.5" y="791.9414"/><text fill="#000000" font-family="sans-serif" font-size="12" lengthAdjust="spacingAndGlyphs" textLength="71" x="102.5" y="813.0801">Email Body:</text><text fill="#000000" font-family="sans-serif" font-size="12" lengthAdjust="spacingAndGlyphs" textLength="229" x="102.5" y="827.0488">Successfully deployed your Yocto VM</text><rect fill="#FEFECE" filter="url(#f15ogo22ccj8z5)" height="61.9063" rx="12.5" ry="12.5" style="stroke: #A80036; stroke-width: 1.5;" width="257" x="361.5" y="791.9414"/><text fill="#000000" font-family="sans-serif" font-size="12" lengthAdjust="spacingAndGlyphs" textLength="71" x="371.5" y="813.0801">Email Body:</text><text fill="#000000" font-family="sans-serif" font-size="12" lengthAdjust="spacingAndGlyphs" textLength="210" x="371.5" y="827.0488">Failed at stage {_previousStage}</text><text fill="#000000" font-family="sans-serif" font-size="12" lengthAdjust="spacingAndGlyphs" textLength="237" x="371.5" y="841.0176">with status {_status} due to {_error}</text><polygon fill="#FEFECE" filter="url(#f15ogo22ccj8z5)" points="353.5,859.8477,365.5,871.8477,353.5,883.8477,341.5,871.8477,353.5,859.8477" style="stroke: #A80036; stroke-width: 1.5;"/><rect fill="#FEFECE" filter="url(#f15ogo22ccj8z5)" height="33.9688" rx="12.5" ry="12.5" style="stroke: #A80036; stroke-width: 1.5;" width="142" x="282.5" y="903.8477"/><text fill="#000000" font-family="sans-serif" font-size="12" lengthAdjust="spacingAndGlyphs" textLength="122" x="292.5" y="924.9863">User receives email</text><ellipse cx="353.5" cy="968.8164" fill="#FFFFFF" filter="url(#f15ogo22ccj8z5)" rx="11" ry="11" style="stroke: #000000; stroke-width: 1.0;"/><ellipse cx="353.5" cy="968.8164" fill="#000000" rx="6" ry="6" style="stroke: #7F7F7F; stroke-width: 1.0;"/><line style="stroke: #A80036; stroke-width: 1.5;" x1="353.5" x2="353.5" y1="50.9531" y2="70.9531"/><polygon fill="#A80036" points="349.5,60.9531,353.5,70.9531,357.5,60.9531,353.5,64.9531" style="stroke: #A80036; stroke-width: 1.0;"/><line style="stroke: #A80036; stroke-width: 1.5;" x1="353.5" x2="353.5" y1="104.9219" y2="124.9219"/><polygon fill="#A80036" points="349.5,114.9219,353.5,124.9219,357.5,114.9219,353.5,118.9219" style="stroke: #A80036; stroke-width: 1.0;"/><line style="stroke: #A80036; stroke-width: 1.5;" x1="281.5" x2="271.5" y1="498.0039" y2="498.0039"/><line style="stroke: #A80036; stroke-width: 1.5;" x1="271.5" x2="271.5" y1="498.0039" y2="520.0039"/><polygon fill="#A80036" points="267.5,510.0039,271.5,520.0039,275.5,510.0039,271.5,514.0039" style="stroke: #A80036; stroke-width: 1.0;"/><line style="stroke: #A80036; stroke-width: 1.5;" x1="425.5" x2="435.5" y1="498.0039" y2="498.0039"/><line style="stroke: #A80036; stroke-width: 1.5;" x1="435.5" x2="435.5" y1="498.0039" y2="520.0039"/><polygon fill="#A80036" points="431.5,510.0039,435.5,520.0039,439.5,510.0039,435.5,514.0039" style="stroke: #A80036; stroke-width: 1.0;"/><line style="stroke: #A80036; stroke-width: 1.5;" x1="353.5" x2="353.5" y1="466.0039" y2="486.0039"/><polygon fill="#A80036" points="349.5,476.0039,353.5,486.0039,357.5,476.0039,353.5,480.0039" style="stroke: #A80036; stroke-width: 1.0;"/><line style="stroke: #A80036; stroke-width: 1.5;" x1="353.5" x2="353.5" y1="407.6328" y2="432.0352"/><polygon fill="#A80036" points="349.5,422.0352,353.5,432.0352,357.5,422.0352,353.5,426.0352" style="stroke: #A80036; stroke-width: 1.0;"/><line style="stroke: #A80036; stroke-width: 1.5;" x1="422.5" x2="446.5" y1="395.6328" y2="395.6328"/><polygon fill="#A80036" points="436.5,391.6328,446.5,395.6328,436.5,399.6328,440.5,395.6328" style="stroke: #A80036; stroke-width: 1.0;"/><line style="stroke: #A80036; stroke-width: 1.5;" x1="353.5" x2="353.5" y1="363.6328" y2="383.6328"/><polygon fill="#A80036" points="349.5,373.6328,353.5,383.6328,357.5,373.6328,353.5,377.6328" style="stroke: #A80036; stroke-width: 1.0;"/><line style="stroke: #A80036; stroke-width: 1.5;" x1="353.5" x2="353.5" y1="305.2617" y2="329.6641"/><polygon fill="#A80036" points="349.5,319.6641,353.5,329.6641,357.5,319.6641,353.5,323.6641" style="stroke: #A80036; stroke-width: 1.0;"/><line style="stroke: #A80036; stroke-width: 1.5;" x1="442" x2="466" y1="293.2617" y2="293.2617"/><polygon fill="#A80036" points="456,289.2617,466,293.2617,456,297.2617,460,293.2617" style="stroke: #A80036; stroke-width: 1.0;"/><line style="stroke: #A80036; stroke-width: 1.5;" x1="353.5" x2="353.5" y1="261.2617" y2="281.2617"/><polygon fill="#A80036" points="349.5,271.2617,353.5,281.2617,357.5,271.2617,353.5,275.2617" style="stroke: #A80036; stroke-width: 1.0;"/><line style="stroke: #A80036; stroke-width: 1.5;" x1="353.5" x2="353.5" y1="202.8906" y2="227.293"/><polygon fill="#A80036" points="349.5,217.293,353.5,227.293,357.5,217.293,353.5,221.293" style="stroke: #A80036; stroke-width: 1.0;"/><line style="stroke: #A80036; stroke-width: 1.5;" x1="431" x2="455" y1="190.8906" y2="190.8906"/><polygon fill="#A80036" points="445,186.8906,455,190.8906,445,194.8906,449,190.8906" style="stroke: #A80036; stroke-width: 1.0;"/><line style="stroke: #A80036; stroke-width: 1.5;" x1="353.5" x2="353.5" y1="158.8906" y2="178.8906"/><polygon fill="#A80036" points="349.5,168.8906,353.5,178.8906,357.5,168.8906,353.5,172.8906" style="stroke: #A80036; stroke-width: 1.0;"/><line style="stroke: #A80036; stroke-width: 1.5;" x1="178" x2="178" y1="596.0039" y2="616.0039"/><polygon fill="#A80036" points="174,606.0039,178,616.0039,182,606.0039,178,610.0039" style="stroke: #A80036; stroke-width: 1.0;"/><line style="stroke: #A80036; stroke-width: 1.5;" x1="523.5" x2="523.5" y1="596.0039" y2="616.0039"/><polygon fill="#A80036" points="519.5,606.0039,523.5,616.0039,527.5,606.0039,523.5,610.0039" style="stroke: #A80036; stroke-width: 1.0;"/><line style="stroke: #A80036; stroke-width: 1.5;" x1="178" x2="178" y1="556.0039" y2="576.0039"/><polygon fill="#A80036" points="174,566.0039,178,576.0039,182,566.0039,178,570.0039" style="stroke: #A80036; stroke-width: 1.0;"/><line style="stroke: #A80036; stroke-width: 1.5;" x1="523.5" x2="523.5" y1="556.0039" y2="576.0039"/><polygon fill="#A80036" points="519.5,566.0039,523.5,576.0039,527.5,566.0039,523.5,570.0039" style="stroke: #A80036; stroke-width: 1.0;"/><line style="stroke: #A80036; stroke-width: 1.5;" x1="178" x2="178" y1="649.9727" y2="671.9727"/><line style="stroke: #A80036; stroke-width: 1.5;" x1="178" x2="341.5" y1="671.9727" y2="671.9727"/><polygon fill="#A80036" points="331.5,667.9727,341.5,671.9727,331.5,675.9727,335.5,671.9727" style="stroke: #A80036; stroke-width: 1.0;"/><line style="stroke: #A80036; stroke-width: 1.5;" x1="523.5" x2="523.5" y1="649.9727" y2="671.9727"/><line style="stroke: #A80036; stroke-width: 1.5;" x1="523.5" x2="365.5" y1="671.9727" y2="671.9727"/><polygon fill="#A80036" points="375.5,667.9727,365.5,671.9727,375.5,675.9727,371.5,671.9727" style="stroke: #A80036; stroke-width: 1.0;"/><line style="stroke: #A80036; stroke-width: 1.5;" x1="353.5" x2="353.5" y1="683.9727" y2="703.9727"/><polygon fill="#A80036" points="349.5,693.9727,353.5,703.9727,357.5,693.9727,353.5,697.9727" style="stroke: #A80036; stroke-width: 1.0;"/><line style="stroke: #A80036; stroke-width: 1.5;" x1="302" x2="217" y1="769.9414" y2="769.9414"/><line style="stroke: #A80036; stroke-width: 1.5;" x1="217" x2="217" y1="769.9414" y2="791.9414"/><polygon fill="#A80036" points="213,781.9414,217,791.9414,221,781.9414,217,785.9414" style="stroke: #A80036; stroke-width: 1.0;"/><line style="stroke: #A80036; stroke-width: 1.5;" x1="405" x2="490" y1="769.9414" y2="769.9414"/><line style="stroke: #A80036; stroke-width: 1.5;" x1="490" x2="490" y1="769.9414" y2="791.9414"/><polygon fill="#A80036" points="486,781.9414,490,791.9414,494,781.9414,490,785.9414" style="stroke: #A80036; stroke-width: 1.0;"/><line style="stroke: #A80036; stroke-width: 1.5;" x1="217" x2="217" y1="839.8789" y2="871.8477"/><line style="stroke: #A80036; stroke-width: 1.5;" x1="217" x2="341.5" y1="871.8477" y2="871.8477"/><polygon fill="#A80036" points="331.5,867.8477,341.5,871.8477,331.5,875.8477,335.5,871.8477" style="stroke: #A80036; stroke-width: 1.0;"/><line style="stroke: #A80036; stroke-width: 1.5;" x1="490" x2="490" y1="853.8477" y2="871.8477"/><line style="stroke: #A80036; stroke-width: 1.5;" x1="490" x2="365.5" y1="871.8477" y2="871.8477"/><polygon fill="#A80036" points="375.5,867.8477,365.5,871.8477,375.5,875.8477,371.5,871.8477" style="stroke: #A80036; stroke-width: 1.0;"/><line style="stroke: #A80036; stroke-width: 1.5;" x1="353.5" x2="353.5" y1="737.9414" y2="757.9414"/><polygon fill="#A80036" points="349.5,747.9414,353.5,757.9414,357.5,747.9414,353.5,751.9414" style="stroke: #A80036; stroke-width: 1.0;"/><line style="stroke: #A80036; stroke-width: 1.5;" x1="353.5" x2="353.5" y1="883.8477" y2="903.8477"/><polygon fill="#A80036" points="349.5,893.8477,353.5,903.8477,357.5,893.8477,353.5,897.8477" style="stroke: #A80036; stroke-width: 1.0;"/><line style="stroke: #A80036; stroke-width: 1.5;" x1="353.5" x2="353.5" y1="937.8164" y2="957.8164"/><polygon fill="#A80036" points="349.5,947.8164,353.5,957.8164,357.5,947.8164,353.5,951.8164" style="stroke: #A80036; stroke-width: 1.0;"/><!--MD5=[03b3669b10b3f4da9be279790da86c32]
@startuml
skinparamlocked backgroundColor fefefe
title Yocto Deployment Campaign
start

:Symphony Activation;
:Service Principal Auth;

if (Is SP login successful?) then (yes)
    :Deploy Yocto VM;
    if (Is Deployment Successful?) then (yes)
        :Secure Copy to VM;
        if (Is Copy Successful?) then (yes)
            :Run Install on VM via SSH;
            if (Is Install Successful?) then (yes)
                #lightGreen:(P)
                detach
            else (no)
                #tomato:(F)
                detach
            endif
        else (no)
            #tomato:(F)
            detach
        endif
    else (no)
        #tomato:(F)
        detach
    endif
else (no)
    #tomato:(F)
    detach
endif

fork
#lightGreen:(P)
:Outputs passed: _previousStage, _status=200;
fork again
#tomato:(F)
:Outputs passed: _previousStage, _status, _error;
end merge
:Send Email;
if (Is _status ok?) then (yes)
    :Email Body:\nSuccessfully deployed your Yocto VM;
else (no)
    :Email Body:\nFailed at stage {_previousStage}\nwith status {_status} due to {_error};
endif
:User receives email;
stop

@enduml

PlantUML version 1.2020.02(Sun Mar 01 10:22:07 UTC 2020)
(GPL source distribution)
Java Runtime: OpenJDK Runtime Environment
JVM: OpenJDK 64-Bit Server VM
Java Version: 11.0.22+7
Operating System: Linux
Default Encoding: UTF-8
Language: en
Country: null
--></g></svg>